<?xml version="1.0" encoding="UTF-8" standalone="no"?>
<!-- Uploaded to: SVG Repo, www.svgrepo.com, Generator: SVG Repo Mixer Tools -->

<svg
   fill="#000000"
   height="800px"
   width="800px"
   version="1.1"
   id="Layer_1"
   viewBox="0 0 472.615 472.615"
   xml:space="preserve"
   sodipodi:docname="app_icon.svg"
   inkscape:version="1.4.2 (f4327f4, 2025-05-13)"
   xmlns:inkscape="http://www.inkscape.org/namespaces/inkscape"
   xmlns:sodipodi="http://sodipodi.sourceforge.net/DTD/sodipodi-0.dtd"
   xmlns="http://www.w3.org/2000/svg"
   xmlns:svg="http://www.w3.org/2000/svg"><defs
   id="defs34"><linearGradient
     id="swatch280"
     inkscape:swatch="solid"><stop
       style="stop-color:#4165bf;stop-opacity:1;"
       offset="0"
       id="stop280" /></linearGradient></defs><sodipodi:namedview
   id="namedview34"
   pagecolor="#ffffff"
   bordercolor="#000000"
   borderopacity="0.25"
   inkscape:showpageshadow="2"
   inkscape:pageopacity="0.0"
   inkscape:pagecheckerboard="0"
   inkscape:deskcolor="#d1d1d1"
   inkscape:zoom="1.00875"
   inkscape:cx="400"
   inkscape:cy="400"
   inkscape:window-width="1920"
   inkscape:window-height="1009"
   inkscape:window-x="-8"
   inkscape:window-y="-8"
   inkscape:window-maximized="1"
   inkscape:current-layer="Layer_1" />
<ellipse
   style="fill:#e0daec;fill-opacity:1;stroke-width:2.2487;paint-order:stroke markers fill"
   id="path275"
   cx="236.90341"
   cy="236.3075"
   rx="159.58809"
   ry="158.41679" /><g
   id="g2">
	<g
   id="g1">
		<path
   d="M180.896,316.868c10.786,29.273,27.101,50.056,45.565,55.621v-66.791C210.541,306.814,195.187,310.574,180.896,316.868z"
   id="path1"
   style="fill:#713f9a;fill-opacity:1" />
	</g>
</g>
<g
   id="g4">
	<g
   id="g3">
		<path
   d="M167.642,246.136c0.688,18.391,3.261,35.882,7.346,51.736c16.171-6.843,33.537-10.766,51.473-11.867v-39.869H167.642z"
   id="path2"
   style="fill:#713f9a;fill-opacity:1" />
	</g>
</g>
<g
   id="g6">
	<g
   id="g5">
		<path
   d="M180.897,155.71c14.292,6.294,29.647,10.054,45.564,11.171V100.09C207.997,105.655,191.684,126.438,180.897,155.71z"
   id="path4"
   style="fill:#713f9a;fill-opacity:1" />
	</g>
</g>
<g
   id="g8">
	<g
   id="g7">
		<path
   d="M174.989,174.705c-4.085,15.852-6.658,33.346-7.346,51.739h58.819v-39.87    C208.528,185.474,191.162,181.549,174.989,174.705z"
   id="path6"
   style="fill:#713f9a;fill-opacity:1" />
	</g>
</g>
<g
   id="g10">
	<g
   id="g9">
		<path
   d="M131.612,146.919c-19.245,22.41-30.598,50.038-32.675,79.524h49.026c0.732-21.954,3.86-42.531,8.978-60.987    C147.972,160.186,139.504,153.996,131.612,146.919z"
   id="path8"
   style="fill:#713f9a;fill-opacity:1" />
	</g>
</g>
<g
   id="g12">
	<g
   id="g11">
		<path
   d="M145.424,132.905c5.608,4.961,11.552,9.394,17.786,13.327c5.6-14.503,12.572-27.09,20.568-37.419    C169.85,114.562,156.952,122.708,145.424,132.905z"
   id="path10"
   style="fill:#713f9a;fill-opacity:1" />
	</g>
</g>
<g
   id="g14">
	<g
   id="g13">
		<path
   d="M147.963,246.136H98.937c2.079,29.488,13.437,57.122,32.674,79.522c7.891-7.077,16.359-13.269,25.329-18.539    C151.823,288.664,148.695,268.088,147.963,246.136z"
   id="path12"
   style="fill:#713f9a;fill-opacity:1" />
	</g>
</g>
<g
   id="g16">
	<g
   id="g15">
		<path
   d="M163.21,326.347c-6.233,3.932-12.176,8.365-17.785,13.327c11.532,10.197,24.428,18.339,38.349,24.088    C175.78,353.433,168.809,340.848,163.21,326.347z"
   id="path14"
   style="fill:#713f9a;fill-opacity:1" />
	</g>
</g>
<g
   id="g18">
	<g
   id="g17">
		<path
   d="M288.841,108.816c7.993,10.329,14.965,22.916,20.565,37.416c6.234-3.933,12.178-8.365,17.785-13.327    C315.659,122.708,302.762,114.564,288.841,108.816z"
   id="path16"
   style="fill:#713f9a;fill-opacity:1" />
	</g>
</g>
<g
   id="g20">
	<g
   id="g19">
		<path
   d="M246.154,100.09v66.791c15.917-1.118,31.272-4.878,45.564-11.171C280.931,126.438,264.618,105.655,246.154,100.09z"
   id="path18"
   style="fill:#713f9a;fill-opacity:1" />
	</g>
</g>
<g
   id="g22">
	<g
   id="g21">
		<path
   d="M309.406,326.347c-5.6,14.501-12.572,27.088-20.566,37.417c13.927-5.749,26.826-13.894,38.352-24.09    C321.583,334.713,315.639,330.278,309.406,326.347z"
   id="path20"
   style="fill:#713f9a;fill-opacity:1" />
	</g>
</g>
<g
   id="g24">
	<g
   id="g23">
		<path
   d="M324.652,246.136c-0.732,21.952-3.86,42.528-8.978,60.983c8.97,5.27,17.438,11.461,25.328,18.538    c19.244-22.416,30.598-50.043,32.675-79.521H324.652z"
   id="path22"
   style="fill:#713f9a;fill-opacity:1" />
	</g>
</g>
<g
   id="g26">
	<g
   id="g25">
		<path
   d="M471.434,108.505c-0.492-4.037-3.348-7.286-7.286-8.369C303.951,58.191,243.594,3.151,243.102,2.658    c-3.84-3.545-9.748-3.545-13.489,0c-0.591,0.492-60.948,55.532-221.145,97.477c-3.938,1.083-6.794,4.332-7.286,8.369    c-0.295,2.658-27.963,265.354,231.68,363.422c1.083,0.492,2.265,0.689,3.446,0.689c1.182,0,2.363-0.197,3.446-0.689    C499.397,373.858,471.729,111.163,471.434,108.505z M348.673,346.588c-29.798,30.452-69.712,47.241-112.365,47.241    s-82.567-16.789-112.394-47.269c-29.106-29.538-45.145-68.711-45.145-110.269c0-41.568,16.038-80.74,45.173-110.299    c29.789-30.452,69.702-47.24,112.365-47.24s82.577,16.788,112.394,47.268c29.106,29.53,45.145,68.703,45.145,110.27    C393.846,277.848,377.808,317.021,348.673,346.588z"
   id="path24"
   style="fill:#3f419a;fill-opacity:1" />
	</g>
</g>
<g
   id="g28">
	<g
   id="g27">
		<path
   d="M341.004,146.918c-7.892,7.076-16.36,13.268-25.329,18.538c5.118,18.456,8.246,39.033,8.978,60.987h49.026    C371.6,196.949,360.241,169.313,341.004,146.918z"
   id="path26"
   style="fill:#713f9a;fill-opacity:1" />
	</g>
</g>
<g
   id="g30">
	<g
   id="g29">
		<path
   d="M246.154,305.698v66.791c18.464-5.565,34.778-26.348,45.565-55.621C277.428,310.574,262.074,306.814,246.154,305.698z"
   id="path28"
   style="fill:#713f9a;fill-opacity:1" />
	</g>
</g>
<g
   id="g32">
	<g
   id="g31">
		<path
   d="M297.626,174.705c-16.173,6.844-33.539,10.769-51.473,11.869v39.87h58.819    C304.284,208.051,301.712,190.558,297.626,174.705z"
   id="path30"
   style="fill:#713f9a;fill-opacity:1" />
	</g>
</g>
<g
   id="g34">
	<g
   id="g33">
		<path
   d="M246.154,246.136v39.869c17.936,1.101,35.301,5.023,51.473,11.867c4.085-15.853,6.658-33.345,7.346-51.736H246.154z"
   id="path32"
   style="fill:#713f9a;fill-opacity:1" />
	</g>
</g>
</svg>
