<?xml version="1.0" encoding="utf-8"?><svg version="1.1" id="Layer_1" xmlns="http://www.w3.org/2000/svg" xmlns:xlink="http://www.w3.org/1999/xlink" x="0px" y="0px" viewBox="0 0 111.83 122.88" style="enable-background:new 0 0 111.83 122.88" xml:space="preserve"><style type="text/css"><![CDATA[
	.st0{fill-rule:evenodd;clip-rule:evenodd;fill:#DE4C3C;}
	.st1{fill-rule:evenodd;clip-rule:evenodd;fill:#FFFFFF;}
	.st2{fill-rule:evenodd;clip-rule:evenodd;fill:#393939;}
]]></style><g><path class="st0" d="M55.72,0c20.87,13.2,39.67,19.47,55.85,17.99c2.84,57.11-18.25,90.84-55.63,104.89 C19.84,109.72-1.5,77.42,0.08,17.11C19.07,18.1,37.69,14.01,55.72,0L55.72,0L55.72,0z"/><path class="st2" d="M55.75,7.04c18.47,11.69,35.13,17.22,49.44,15.93c2.51,50.55-16.18,80.41-49.26,92.87 C24,104.19,5.09,75.62,6.49,22.23c16.81,0.88,33.29-2.76,49.26-15.15V7.04L55.75,7.04L55.75,7.04z"/><path class="st1" d="M69.65,44.01h6.81l8.88,13.05V44.01h6.88V67.6h-6.88L76.5,54.64V67.6h-6.85V44.01L69.65,44.01L69.65,44.01z M19.56,44.01h7.63l5.31,16.98l5.22-16.98h7.4L36.36,67.6h-7.89L19.56,44.01L19.56,44.01L19.56,44.01z M46.94,44.01h12.11 c2.64,0,4.61,0.62,5.92,1.89c1.31,1.25,1.97,3.05,1.97,5.35c0,2.38-0.72,4.25-2.14,5.59c-1.44,1.34-3.61,2.01-6.55,2.01h-3.99v8.75 h-7.31V44.01L46.94,44.01L46.94,44.01z M54.25,54.06h1.78c1.4,0,2.39-0.25,2.96-0.73c0.57-0.49,0.85-1.1,0.85-1.88 c0-0.74-0.25-1.37-0.74-1.89c-0.49-0.52-1.42-0.77-2.78-0.77h-2.08v5.27H54.25L54.25,54.06z"/></g></svg>