<?xml version="1.0" encoding="UTF-8" standalone="no"?>
<svg
   xmlns:osb="http://www.openswatchbook.org/uri/2009/osb"
   xmlns:dc="http://purl.org/dc/elements/1.1/"
   xmlns:cc="http://creativecommons.org/ns#"
   xmlns:rdf="http://www.w3.org/1999/02/22-rdf-syntax-ns#"
   xmlns:svg="http://www.w3.org/2000/svg"
   xmlns="http://www.w3.org/2000/svg"
   xmlns:sodipodi="http://sodipodi.sourceforge.net/DTD/sodipodi-0.dtd"
   xmlns:inkscape="http://www.inkscape.org/namespaces/inkscape"
   width="1000"
   height="1000"
   viewBox="0 0 264.58333 264.58334"
   version="1.1"
   id="svg8"
   sodipodi:docname="flusk.svg"
   inkscape:version="1.0 (4035a4fb49, 2020-05-01)"
   inkscape:export-filename="C:\Users\png09\Desktop\flusk.png"
   inkscape:export-xdpi="60.82"
   inkscape:export-ydpi="60.82">
  <defs
     id="defs2">
    <linearGradient
       id="linearGradient4221"
       osb:paint="solid">
      <stop
         style="stop-color:#f2f2f2;stop-opacity:1;"
         offset="0"
         id="stop4219" />
    </linearGradient>
    <filter
       inkscape:collect="always"
       style="color-interpolation-filters:sRGB"
       id="filter4783"
       x="-0.64123893"
       width="2.2824779"
       y="-0.6078068"
       height="2.2156136">
      <feGaussianBlur
         inkscape:collect="always"
         stdDeviation="167.79516"
         id="feGaussianBlur4785" />
    </filter>
  </defs>
  <sodipodi:namedview
     inkscape:showpageshadow="true"
     showborder="true"
     inkscape:pagecheckerboard="false"
     units="px"
     id="base"
     pagecolor="#ffffff"
     bordercolor="#666666"
     borderopacity="1.0"
     inkscape:pageopacity="0.0"
     inkscape:pageshadow="2"
     inkscape:zoom="1"
     inkscape:cx="350.45974"
     inkscape:cy="423.09555"
     inkscape:document-units="px"
     inkscape:current-layer="layer1"
     inkscape:document-rotation="0"
     showgrid="false"
     inkscape:window-width="2498"
     inkscape:window-height="1417"
     inkscape:window-x="54"
     inkscape:window-y="-8"
     inkscape:window-maximized="1" />
  <metadata
     id="metadata5">
    <rdf:RDF>
      <cc:Work
         rdf:about="">
        <dc:format>image/svg+xml</dc:format>
        <dc:type
           rdf:resource="http://purl.org/dc/dcmitype/StillImage" />
        <dc:title />
      </cc:Work>
    </rdf:RDF>
  </metadata>
  <g
     style="display:inline"
     inkscape:label="Layer 1"
     inkscape:groupmode="layer"
     id="layer1">
    <path
       style="opacity:0.205128;fill:none;fill-opacity:1;filter:url(#filter4783)"
       d="M 240.15056,1070.492 C 123.54241,1065.3287 66.349533,1050.6825 46.598516,1020.9263 37.087269,1006.597 36.6283,987.2374 45.301216,966.20536 59.286092,932.2917 82.671819,900.71149 132.38268,848.61011 c 50.23649,-52.65228 60.23525,-63.93743 75.48802,-85.19991 26.29978,-36.66209 50.48664,-84.58826 65.65515,-130.09543 14.52878,-43.5879 24.45932,-93.20042 27.68762,-138.32613 1.31816,-18.42547 1.65705,-70.98684 0.51688,-80.16792 l -0.77616,-6.25 h 52.49287 52.49288 l -0.83061,3.6828 c -1.62331,7.19754 -2.2193,47.43386 -1.01193,68.3172 4.84636,83.82563 23.19483,153.8348 58.57636,223.5 21.85693,43.03564 44.24683,74.28968 80.10612,111.82002 10.37887,10.86253 26.2262,27.49679 35.21629,36.96502 48.76756,51.36129 74.18828,87.09099 85.30494,119.89902 4.18621,12.35453 5.03202,27.12649 2.08535,36.42012 -9.98889,31.5044 -54.75223,50.0198 -138.7359,57.3853 -43.06946,3.7772 -60.76381,4.2661 -164,4.531 -56.65,0.1453 -111.775,-0.1243 -122.5,-0.5992 z"
       id="path2163"
       transform="matrix(0.26458333,0,0,0.26458333,76.332178,-24.695705)" />
    <circle
       r="0"
       cy="269.61041"
       cx="18.520834"
       style="fill:#94bfc9;stroke:#000000;stroke-width:0.264583"
       id="path8661" />
    <path
       sodipodi:nodetypes="ccc"
       id="path970"
       d="M 208.634,49.20806 C 204.54566,130.20609 180.06528,197.43531 79.902041,161.66442 66.324381,72.139876 122.57008,37.552281 208.634,49.20806 Z"
       style="opacity:1;mix-blend-mode:normal;fill:#5fff96;fill-opacity:1;stroke:#000000;stroke-width:0.254136px;stroke-linecap:butt;stroke-linejoin:miter;stroke-opacity:1" />
    <path
       d="M 79.902041,161.66442 C 164.63444,197.42897 204.11763,146.00612 210.60621,47.364411 105.41994,41.102831 71.374691,79.873656 79.902041,161.66442 Z m -34.927868,56.62353 c 0,0 59.212227,-119.050773 131.090027,-137.528486"
       style="fill:none;fill-opacity:1;stroke:#396ab3;stroke-width:7.11729;stroke-linecap:round;stroke-linejoin:round;stroke-miterlimit:4;stroke-dasharray:none;stroke-opacity:1"
       id="path963" />
  </g>
  <g
     style="display:inline"
     inkscape:label="Layer 2"
     id="layer2"
     inkscape:groupmode="layer" />
</svg>
